<mxfile host="app.diagrams.net" agent="Mozilla/5.0 (Windows NT 10.0; Win64; x64) AppleWebKit/537.36 (KHTML, like Gecko) Chrome/135.0.0.0 Safari/537.36" version="26.2.12">
  <diagram name="Page-1" id="dmJ5klp1wzARZ7jFiC1e">
    <mxGraphModel dx="1428" dy="749" grid="1" gridSize="10" guides="1" tooltips="1" connect="1" arrows="1" fold="1" page="1" pageScale="1" pageWidth="1169" pageHeight="827" math="0" shadow="0">
      <root>
        <mxCell id="0" />
        <mxCell id="1" parent="0" />
        <mxCell id="VIMTms-QjXE9sRaxGk84-1" value="" style="rounded=1;whiteSpace=wrap;html=1;strokeColor=light-dark(#ff0000, #ededed);strokeWidth=2;fontSize=17;fontFamily=Times New Roman;" vertex="1" parent="1">
          <mxGeometry x="480" y="306" width="160" height="130" as="geometry" />
        </mxCell>
        <mxCell id="VIMTms-QjXE9sRaxGk84-4" value="Servo Motor" style="ellipse;whiteSpace=wrap;html=1;fontFamily=Times New Roman;fontSize=14;fillColor=#fad7ac;strokeColor=#b46504;" vertex="1" parent="1">
          <mxGeometry x="700" y="331" width="120" height="80" as="geometry" />
        </mxCell>
        <mxCell id="VIMTms-QjXE9sRaxGk84-14" style="edgeStyle=orthogonalEdgeStyle;rounded=0;orthogonalLoop=1;jettySize=auto;html=1;entryX=0.5;entryY=1;entryDx=0;entryDy=0;flowAnimation=1;fillColor=#dae8fc;strokeColor=#00FFFF;" edge="1" parent="1" source="VIMTms-QjXE9sRaxGk84-6" target="VIMTms-QjXE9sRaxGk84-1">
          <mxGeometry relative="1" as="geometry" />
        </mxCell>
        <mxCell id="VIMTms-QjXE9sRaxGk84-24" value="under development" style="edgeLabel;html=1;align=center;verticalAlign=middle;resizable=0;points=[];" vertex="1" connectable="0" parent="VIMTms-QjXE9sRaxGk84-14">
          <mxGeometry x="-0.3213" y="1" relative="1" as="geometry">
            <mxPoint as="offset" />
          </mxGeometry>
        </mxCell>
        <mxCell id="VIMTms-QjXE9sRaxGk84-6" value="Pi Camera" style="sketch=0;outlineConnect=0;fontColor=#232F3E;gradientColor=none;strokeColor=#232F3E;fillColor=#ffffff;dashed=0;verticalLabelPosition=bottom;verticalAlign=top;align=center;html=1;fontSize=12;fontStyle=0;aspect=fixed;shape=mxgraph.aws4.resourceIcon;resIcon=mxgraph.aws4.camera;" vertex="1" parent="1">
          <mxGeometry x="500" y="480" width="120" height="120" as="geometry" />
        </mxCell>
        <mxCell id="VIMTms-QjXE9sRaxGk84-20" style="edgeStyle=orthogonalEdgeStyle;rounded=0;orthogonalLoop=1;jettySize=auto;html=1;entryX=0;entryY=0.75;entryDx=0;entryDy=0;exitX=0.5;exitY=1;exitDx=0;exitDy=0;exitPerimeter=0;flowAnimation=1;strokeColor=#FF8000;" edge="1" parent="1" source="VIMTms-QjXE9sRaxGk84-9" target="VIMTms-QjXE9sRaxGk84-1">
          <mxGeometry relative="1" as="geometry" />
        </mxCell>
        <mxCell id="VIMTms-QjXE9sRaxGk84-9" value="M" style="dashed=0;outlineConnect=0;align=center;html=1;shape=mxgraph.pid.engines.electric_motor_(dc);fontSize=45;fillColor=#bac8d3;strokeColor=#23445d;" vertex="1" parent="1">
          <mxGeometry x="320" y="270" width="100" height="100" as="geometry" />
        </mxCell>
        <mxCell id="VIMTms-QjXE9sRaxGk84-23" style="edgeStyle=orthogonalEdgeStyle;rounded=0;orthogonalLoop=1;jettySize=auto;html=1;flowAnimation=1;strokeColor=#FF8000;" edge="1" parent="1">
          <mxGeometry relative="1" as="geometry">
            <mxPoint x="510" y="305" as="targetPoint" />
            <mxPoint x="535" y="225" as="sourcePoint" />
          </mxGeometry>
        </mxCell>
        <mxCell id="VIMTms-QjXE9sRaxGk84-10" value="M" style="dashed=0;outlineConnect=0;align=center;html=1;shape=mxgraph.pid.engines.electric_motor_(dc);fontSize=45;fillColor=#bac8d3;strokeColor=#23445d;" vertex="1" parent="1">
          <mxGeometry x="535" y="170" width="100" height="100" as="geometry" />
        </mxCell>
        <mxCell id="VIMTms-QjXE9sRaxGk84-13" value="" style="shape=image;html=1;verticalAlign=top;verticalLabelPosition=bottom;labelBackgroundColor=#ffffff;imageAspect=0;aspect=fixed;image=https://cdn1.iconfinder.com/data/icons/fruit-136/64/Fruit_iconfree_Filled_Outline_raspberry-healthy-organic-food-fruit_icon-128.png" vertex="1" parent="1">
          <mxGeometry x="531" y="342" width="58" height="58" as="geometry" />
        </mxCell>
        <mxCell id="VIMTms-QjXE9sRaxGk84-17" style="edgeStyle=orthogonalEdgeStyle;rounded=0;orthogonalLoop=1;jettySize=auto;html=1;entryX=0.995;entryY=0.852;entryDx=0;entryDy=0;entryPerimeter=0;flowAnimation=1;fillColor=#b0e3e6;strokeColor=light-dark(#00ff04, #46a8af);" edge="1" parent="1" source="VIMTms-QjXE9sRaxGk84-4" target="VIMTms-QjXE9sRaxGk84-1">
          <mxGeometry relative="1" as="geometry">
            <Array as="points">
              <mxPoint x="760" y="417" />
            </Array>
          </mxGeometry>
        </mxCell>
        <mxCell id="VIMTms-QjXE9sRaxGk84-18" style="edgeStyle=orthogonalEdgeStyle;rounded=0;orthogonalLoop=1;jettySize=auto;html=1;entryX=0.5;entryY=0;entryDx=0;entryDy=0;exitX=1.003;exitY=0.173;exitDx=0;exitDy=0;exitPerimeter=0;flowAnimation=1;fillColor=#b0e3e6;strokeColor=light-dark(#00ff04, #46a8af);" edge="1" parent="1" source="VIMTms-QjXE9sRaxGk84-1" target="VIMTms-QjXE9sRaxGk84-4">
          <mxGeometry relative="1" as="geometry">
            <Array as="points">
              <mxPoint x="710" y="329" />
              <mxPoint x="710" y="320" />
              <mxPoint x="760" y="320" />
            </Array>
          </mxGeometry>
        </mxCell>
        <mxCell id="VIMTms-QjXE9sRaxGk84-21" style="edgeStyle=orthogonalEdgeStyle;rounded=0;orthogonalLoop=1;jettySize=auto;html=1;entryX=0.5;entryY=0;entryDx=0;entryDy=0;entryPerimeter=0;exitX=0.038;exitY=0.025;exitDx=0;exitDy=0;exitPerimeter=0;flowAnimation=1;strokeColor=#00FF00;" edge="1" parent="1" source="VIMTms-QjXE9sRaxGk84-1" target="VIMTms-QjXE9sRaxGk84-9">
          <mxGeometry relative="1" as="geometry" />
        </mxCell>
        <mxCell id="VIMTms-QjXE9sRaxGk84-22" style="edgeStyle=orthogonalEdgeStyle;rounded=0;orthogonalLoop=1;jettySize=auto;html=1;entryX=1;entryY=0.5;entryDx=0;entryDy=0;entryPerimeter=0;exitX=0.875;exitY=0.031;exitDx=0;exitDy=0;exitPerimeter=0;flowAnimation=1;strokeColor=#00FF00;" edge="1" parent="1" source="VIMTms-QjXE9sRaxGk84-1" target="VIMTms-QjXE9sRaxGk84-10">
          <mxGeometry relative="1" as="geometry">
            <mxPoint x="630" y="300" as="sourcePoint" />
          </mxGeometry>
        </mxCell>
      </root>
    </mxGraphModel>
  </diagram>
</mxfile>
